<?xml version="1.0" encoding="iso-8859-1"?>
<!-- Generator: Adobe Illustrator 19.0.0, SVG Export Plug-In . SVG Version: 6.00 Build 0)  -->
<svg version="1.1" id="Layer_1" xmlns="http://www.w3.org/2000/svg" xmlns:xlink="http://www.w3.org/1999/xlink" x="0px" y="0px"
	 viewBox="0 0 496 496" style="enable-background:new 0 0 496 496;" xml:space="preserve">
<path style="fill:#E1EFEE;" d="M322,125.6c-9.6-7.2-22.4-13.6-38.4-17.6l-8-76h-54.4l-9.6,76c-16,3.2-31.2,9.6-41.6,16.8
	c-22.4,1.6-42.4,21.6-42.4,44v300.8c0,24,23.2,26.4,48,26.4h144.8c24,0,48-2.4,48-26.4V168.8C368.4,145.6,344.4,127.2,322,125.6z"/>
<path style="fill:#BFE8E1;" d="M316.4,495.2c24,0,52-1.6,52-25.6V168.8c0-23.2-24-41.6-46.4-43.2c-9.6-7.2-22.4-13.6-38.4-17.6
	l-8-76h-54.4l-10.4,76"/>
<path style="fill:#9ADBCE;" d="M368.4,168.8c0-23.2-21.6-41.6-44-43.2c-9.6-7.2-23.2-13.6-39.2-17.6l-9.6-76h-54.4l-9.6,76"/>
<path style="fill:#00A057;" d="M128.4,216v253.6c0,24,23.2,26.4,48,26.4h144c24,0,48-2.4,48-26.4V216H128.4z"/>
<path style="fill:#008C61;" d="M320.4,496c24,0,48-2.4,48-26.4V216h-240"/>
<polygon style="fill:#E1EFEE;" points="248.4,342.4 274,400 314,400 248.4,254.4 182.8,400 222.8,400 "/>
<polyline style="fill:#AAE2DB;" points="248.4,341.6 274,400 314,400 248.4,253.6 "/>
<g>
	<path style="fill:#00A057;" d="M280.4,0c4.8,0,8,1.6,8,4.8V40c0,4-3.2,8-8,8h-64c-4.8,0-8-4-8-8V4.8c0-3.2,3.2-4.8,8-4.8H280.4z"/>
	<path style="fill:#00A057;" d="M299.6,178.4l-27.2-1.6l8.8-37.6l-20.8,18.4l-12-39.2l-12,38.4l-20.8-18.4l8.8,37.6l-28,1.6
		l32.8,20.8l8-4.8l0,0c0,5.6,4.8,10.4,10.4,10.4s10.4-4.8,10.4-10.4c0-0.8,0-0.8,0-0.8l9.6,5.6L299.6,178.4z"/>
</g>
<path style="fill:#008C61;" d="M299.6,178.4l-35.2,14.4l16.8-53.6l-20.8,34.4l-12-55.2l-12,54.4l-20.8-34.4l16.8,53.6l-36-14.4
	l32.8,20.8l8-4.8l0,0c0,5.6,4.8,10.4,10.4,10.4s10.4-4.8,10.4-10.4c0-0.8,0-0.8,0-0.8l9.6,5.6L299.6,178.4z"/>
<rect x="184.4" y="408" style="fill:#E1EFEE;" width="56" height="16"/>
<rect x="256.4" y="408" style="fill:#AAE2DB;" width="56" height="16"/>
<g>
	<path style="fill:#14C671;" d="M160.4,480.8c0,4-3.2,7.2-7.2,7.2h-1.6c-4,0-7.2-3.2-7.2-7.2V287.2c0-4,3.2-7.2,7.2-7.2h1.6
		c4,0,7.2,3.2,7.2,7.2V480.8z"/>
	<path style="fill:#14C671;" d="M160.4,260.8c0,4.8-4,8-8,8l0,0c-4,0-8-3.2-8-8.8v-22.4c0-4,4-8,8-8l0,0c4,0,8,4,8,8V260.8z"/>
</g>
<path style="fill:#008C61;" d="M288.4,30.4l-0.8,0.8l-12.8-13.6l-13.6,13.6l-12.8-13.6l-13.6,13.6l-13.6-13.6l-12.8,13.6l0-0.8V40
	c0,4,3.2,8,8,8h16.8l1.6-1.6l2.4,1.6h23.2l1.6-1.6l1.6,1.6h16.8c4.8,0,8-4,8-8V30.4z"/>
<ellipse transform="matrix(-0.7614 -0.6482 0.6482 -0.7614 185.6614 383.1865)" style="fill:#FFFFFF;" cx="163.34" cy="157.43" rx="12.799" ry="25.599"/>
<g>
	<path style="fill:#E1EFEE;" d="M242,455.2c2.4-1.6,4-4.8,4-8c0-5.6-4.8-9.6-9.6-9.6s-9.6,4.8-9.6,9.6c0,3.2,1.6,5.6,4,8
		c1.6-1.6,4-2.4,6.4-2.4S240.4,454.4,242,455.2z"/>
	<path style="fill:#E1EFEE;" d="M242,455.2c-1.6,1.6-4,2.4-6.4,2.4s-4-0.8-6.4-2.4c-2.4,1.6-4,4.8-4,8c0,5.6,4.8,9.6,9.6,9.6
		s9.6-4.8,9.6-9.6C246,460,244.4,457.6,242,455.2z"/>
</g>
<ellipse style="fill:#AAE2DB;" cx="260.4" cy="455.2" rx="10.4" ry="16.8"/>
<g>
	<circle style="fill:#00A057;" cx="260.4" cy="449.6" r="2.4"/>
	<circle style="fill:#00A057;" cx="260.4" cy="461.6" r="2.4"/>
</g>
<g>
	<path style="fill:#14C671;" d="M280.4,4c0,2.4-1.6,4-4,4h-56.8c-1.6,0-3.2-1.6-3.2-4l0,0c0-2.4,1.6-4,4-4h56.8
		C278.8,0,280.4,1.6,280.4,4L280.4,4z"/>
	<path style="fill:#14C671;" d="M368.4,220.8c0,1.6-1.6,3.2-3.2,3.2H131.6c-1.6,0-3.2-1.6-3.2-3.2v-1.6c0-1.6,1.6-3.2,3.2-3.2h233.6
		c1.6,0,3.2,1.6,3.2,3.2V220.8z"/>
</g>
<g>
</g>
<g>
</g>
<g>
</g>
<g>
</g>
<g>
</g>
<g>
</g>
<g>
</g>
<g>
</g>
<g>
</g>
<g>
</g>
<g>
</g>
<g>
</g>
<g>
</g>
<g>
</g>
<g>
</g>
</svg>
