<svg id="Capa_1" enable-background="new 0 0 512 512" height="512" viewBox="0 0 512 512" width="512" xmlns="http://www.w3.org/2000/svg"><g><path d="m501.698 414.179h-491.396c-5.69 0-10.302-4.613-10.302-10.302v-22.999h512v22.999c0 5.689-4.612 10.302-10.302 10.302z" fill="#d0e2e7"/><path d="m446.435 244.813-28.449-134.657c-1.006-4.764-5.21-8.172-10.079-8.172h-397.605c-5.69 0-10.302 4.612-10.302 10.302v268.592h512v-93.443c0-3.95-2.259-7.553-5.815-9.273l-54.158-26.205c-2.868-1.388-4.933-4.026-5.592-7.144z" fill="#f1f4f6"/><path d="m446.435 244.813-28.449-134.657c-1.006-4.764-5.21-8.172-10.079-8.172h-27.299l31.389 138.171c1.381 6.078 5.413 11.217 10.988 14.005l42.127 21.064c7.051 3.526 11.505 10.732 11.505 18.616v87.039h35.383v-93.443c0-3.95-2.259-7.553-5.815-9.273l-54.158-26.205c-2.868-1.389-4.933-4.027-5.592-7.145z" fill="#d0e2e7"/><path d="m330.927 239.454v-93.868c0-5.69 4.612-10.302 10.302-10.302h38.711c4.81 0 8.98 3.328 10.046 8.019l21.334 93.868c1.465 6.446-3.435 12.585-10.046 12.585h-60.044c-5.691 0-10.303-4.612-10.303-10.302z" fill="#b1e4f9"/><path d="m379.939 135.285h-11.549l26.016 114.471h6.867c6.611 0 11.511-6.138 10.046-12.585l-21.334-93.868c-1.066-4.69-5.236-8.018-10.046-8.018z" fill="#90d8f9"/><path d="m235.187 239.454v-93.868c0-5.69 4.612-10.302 10.302-10.302h41.835c5.69 0 10.302 4.612 10.302 10.302v93.868c0 5.69-4.612 10.302-10.302 10.302h-41.835c-5.69 0-10.302-4.612-10.302-10.302z" fill="#b1e4f9"/><g><circle cx="408.976" cy="397.528" fill="#86a0af" r="62.439"/><path d="m444.316 346.058c6.914 10.05 10.969 22.219 10.969 35.34 0 34.484-27.955 62.439-62.439 62.439-13.121 0-25.29-4.055-35.34-10.969 11.257 16.364 30.107 27.099 51.47 27.099 34.484 0 62.439-27.955 62.439-62.439 0-21.363-10.736-40.212-27.099-51.47z" fill="#738b95"/><circle cx="408.976" cy="397.528" fill="#d0e2e7" r="17.691"/></g><g><circle cx="103.024" cy="397.528" fill="#86a0af" r="62.439"/><path d="m138.364 346.058c6.914 10.05 10.969 22.219 10.969 35.34 0 34.484-27.955 62.439-62.439 62.439-13.121 0-25.29-4.055-35.34-10.969 11.257 16.364 30.107 27.099 51.47 27.099 34.484 0 62.439-27.955 62.439-62.439 0-21.363-10.735-40.212-27.099-51.47z" fill="#738b95"/><circle cx="103.024" cy="397.528" fill="#d0e2e7" r="17.691"/></g><path d="m180.095 188.358h-40.711c-3.414 0-6.181-2.767-6.181-6.181v-40.711c0-3.414-2.767-6.181-6.181-6.181h-23.02c-3.414 0-6.181 2.767-6.181 6.181v40.711c0 3.414-2.767 6.181-6.181 6.181h-40.711c-3.414 0-6.181 2.767-6.181 6.181v23.02c0 3.414 2.767 6.181 6.181 6.181h40.711c3.414 0 6.181 2.767 6.181 6.181v40.711c0 3.414 2.767 6.181 6.181 6.181h23.02c3.414 0 6.181-2.767 6.181-6.181v-40.711c0-3.414 2.767-6.181 6.181-6.181h40.711c3.414 0 6.181-2.767 6.181-6.181v-23.02c0-3.414-2.767-6.181-6.181-6.181z" fill="#dd636e"/><path d="m287.22 101.984h-62.44l8.698-41.75c.995-4.777 5.206-8.201 10.085-8.201h24.872c4.88 0 9.09 3.424 10.085 8.201z" fill="#dd636e"/><path d="m359.466 290.783h-20.813c-4.268 0-7.726-3.459-7.726-7.726s3.459-7.726 7.726-7.726h20.813c4.268 0 7.726 3.459 7.726 7.726s-3.458 7.726-7.726 7.726z" fill="#d0e2e7"/><path d="m512 315.759h-20.813c-4.268 0-7.726-3.459-7.726-7.726s3.459-7.726 7.726-7.726h20.813z" fill="#86a0af"/><path d="m512 349.06h-20.813c-4.268 0-7.726-3.459-7.726-7.726s3.459-7.726 7.726-7.726h20.813z" fill="#86a0af"/><path d="m242.913 357.385c-4.268 0-7.726-3.459-7.726-7.726v-66.602c0-4.267 3.459-7.726 7.726-7.726s7.726 3.459 7.726 7.726v66.602c.001 4.266-3.458 7.726-7.726 7.726z" fill="#d0e2e7"/></g></svg>