<?xml version="1.0" encoding="iso-8859-1"?>
<!-- Generator: Adobe Illustrator 19.0.0, SVG Export Plug-In . SVG Version: 6.00 Build 0)  -->
<svg version="1.1" id="Layer_1" xmlns="http://www.w3.org/2000/svg" xmlns:xlink="http://www.w3.org/1999/xlink" x="0px" y="0px"
	 viewBox="0 0 493.6 493.6" style="enable-background:new 0 0 493.6 493.6;" xml:space="preserve">
<path style="fill:#FFFCEE;" d="M166.8,0c-12.8,32-20,72.8-20,115.2c0,104,44.8,189.6,100,189.6s100-85.6,100-190.4
	c0-42.4-7.2-82.4-20-114.4H166.8z"/>
<path style="fill:#EDE9D9;" d="M246.8,304c55.2,0,100-85.6,100-189.6c0-42.4-7.2-82.4-20-114.4h-80"/>
<path style="fill:#E8E3CF;" d="M179.6,0c-10.4,32-16.8,61.6-16.8,97.6c0,88,37.6,176.8,84,176.8s84-88.8,84-176.8
	c0-36-6.4-64.8-16.8-96.8H179.6V0z"/>
<path style="fill:#D8D2BA;" d="M246.8,273.6c46.4,0,84-88.8,84-176.8c0-36-6.4-64.8-16.8-96.8h-67.2"/>
<path style="fill:#FFFCEE;" d="M335.6,477.6c0,8-39.2,15.2-88.8,15.2s-88.8-6.4-88.8-15.2s39.2-32,88.8-32S335.6,469.6,335.6,477.6z
	"/>
<path style="fill:#EDE9D9;" d="M246.8,446.4c48.8,0,88.8,23.2,88.8,32s-39.2,15.2-88.8,15.2"/>
<polygon style="fill:#FFFCEE;" points="257.2,464.8 246.8,468.8 236.4,464.8 241.2,282.4 246.8,272 252.4,282.4 "/>
<polyline style="fill:#EDE9D9;" points="246.8,272 252.4,282.4 257.2,464.8 246.8,468.8 "/>
<path style="fill:#FFFFFF;" d="M177.2,470.4c0.8,3.2,12,2.4,24.8-1.6c13.6-4,24-9.6,23.2-12.8c-0.8-3.2-12-2.4-24.8,1.6
	C186.8,461.6,176.4,467.2,177.2,470.4z"/>
<path style="fill:#7540B2;" d="M318.8,107.2c-13.6,0-25.6-4-36-9.6c-10.4,6.4-22.4,9.6-36,9.6c-13.6,0-25.6-4-36-9.6
	c-10.4,6.4-22.4,9.6-36,9.6c-4,0-8,0-12-0.8c1.6,85.6,38.4,168.8,84,168.8s82.4-83.2,84-168.8C326.8,106.4,322.8,107.2,318.8,107.2z
	"/>
<path style="fill:#652A9E;" d="M246.8,275.2c45.6,0,82.4-83.2,84-168.8c-4,0.8-8,0.8-12,0.8c-13.6,0-25.6-4-36-9.6
	c-10.4,6.4-22.4,9.6-36,9.6"/>
<path style="fill:#FFFCEE;" d="M310.8,13.6c0,0.8-1.6,2.4-2.4,2.4H193.2c-0.8,0-2.4-1.6-2.4-2.4v-3.2c0-0.8,1.6-2.4,2.4-2.4h114.4
	c1.6,0,3.2,1.6,3.2,2.4V13.6z"/>
<ellipse transform="matrix(-0.2417 -0.9704 0.9704 -0.2417 72.4717 395.6652)" style="fill:#8552CE;" cx="190.838" cy="169.515" rx="49.602" ry="9.6"/>
<g>
</g>
<g>
</g>
<g>
</g>
<g>
</g>
<g>
</g>
<g>
</g>
<g>
</g>
<g>
</g>
<g>
</g>
<g>
</g>
<g>
</g>
<g>
</g>
<g>
</g>
<g>
</g>
<g>
</g>
</svg>
