<?xml version="1.0" encoding="iso-8859-1"?>
<!-- Generator: Adobe Illustrator 19.0.0, SVG Export Plug-In . SVG Version: 6.00 Build 0)  -->
<svg version="1.1" id="Layer_1" xmlns="http://www.w3.org/2000/svg" xmlns:xlink="http://www.w3.org/1999/xlink" x="0px" y="0px"
	 viewBox="0 0 464 464" style="enable-background:new 0 0 464 464;" xml:space="preserve">
<path style="fill:#B7874E;" d="M388.8,28c0,15.2-18.4,28-41.6,28H116.8c-23.2,0-41.6-12.8-41.6-28l0,0c0-15.2,18.4-28,41.6-28h230.4
	C370.4,0,388.8,12.8,388.8,28L388.8,28z"/>
<path style="fill:#93591B;" d="M248,0h99.2c23.2,0,41.6,12.8,41.6,28l0,0c0,15.2-18.4,27.2-41.6,27.2"/>
<polygon style="fill:#494949;" points="338.4,464 125.6,464 60,32 404,32 "/>
<polyline style="fill:#282828;" points="56,32 404,32 338.4,464 "/>
<polyline points="56,32 404,32 366.4,280.8 "/>
<rect x="24" y="24" style="fill:#B7874E;" width="416" height="48"/>
<polyline style="fill:#93591B;" points="24,24 440,24 440,72 "/>
<polygon style="fill:#878787;" points="345.6,416 118.4,416 120,432 344,432 "/>
<polygon style="fill:#FCF170;" points="358.4,336 386.4,152 77.6,152 105.6,336 "/>
<polyline style="fill:#F2B233;" points="358.4,336 386.4,152 80,152 "/>
<path d="M224,171.2c-32,5.6-56.8,35.2-56.8,72c0,36,24.8,66.4,56.8,72V171.2z"/>
<path d="M240,171.2v144c32-5.6,56.8-35.2,56.8-72C296.8,207.2,272,176.8,240,171.2z"/>
<g>
</g>
<g>
</g>
<g>
</g>
<g>
</g>
<g>
</g>
<g>
</g>
<g>
</g>
<g>
</g>
<g>
</g>
<g>
</g>
<g>
</g>
<g>
</g>
<g>
</g>
<g>
</g>
<g>
</g>
</svg>
