<?xml version="1.0" encoding="iso-8859-1"?>
<!-- Generator: Adobe Illustrator 19.0.0, SVG Export Plug-In . SVG Version: 6.00 Build 0)  -->
<svg version="1.1" id="Layer_1" xmlns="http://www.w3.org/2000/svg" xmlns:xlink="http://www.w3.org/1999/xlink" x="0px" y="0px"
	 viewBox="0 0 475.2 475.2" style="enable-background:new 0 0 475.2 475.2;" xml:space="preserve">
<path style="fill:#ED4545;" d="M11.2,385.6c0,51.2,39.2,68,90.4,68h217.6c51.2,0,92-16.8,92-68v-164h-400V385.6z"/>
<path style="fill:#D63834;" d="M99.2,453.6h220c51.2,0,92-16.8,92-68v-164h-400"/>
<path style="fill:#B20000;" d="M319.2,453.6c51.2,0,92-16.8,92-68v-164h-400"/>
<path style="fill:#F7DF77;" d="M420.8,213.6c0,9.6-8,16-17.6,16H17.6c-9.6,0-17.6-6.4-17.6-16l0,0c0-9.6,8-16,17.6-16h385.6
	C412.8,197.6,420.8,204,420.8,213.6L420.8,213.6z"/>
<path style="fill:#F4B562;" d="M19.2,197.6h384c9.6,0,17.6,6.4,17.6,16l0,0c0,9.6-8,16-17.6,16h-240"/>
<path style="fill:#F7DF77;" d="M11.2,293.6v73.6L8,365.6h404l-1.6,1.6v-73.6H11.2z"/>
<path style="fill:#F4B562;" d="M108.8,293.6l93.6,72.8l-85.6-0.8H412l-1.6,1.6v-73.6H108.8z"/>
<path style="fill:#ED4545;" d="M416.8,253.6h-5.6v32h2.4c21.6,0,37.6,14.4,37.6,36v16.8c0,21.6-16,43.2-37.6,43.2h-2.4v24h5.6
	c34.4,0,58.4-28,58.4-62.4v-26.4C475.2,282.4,450.4,253.6,416.8,253.6z"/>
<path style="fill:#D63834;" d="M411.2,253.6v32h2.4c21.6,0,37.6,14.4,37.6,36v16.8c0,21.6-16,43.2-37.6,43.2h-2.4v24h5.6
	c34.4,0,58.4-28,58.4-62.4v-25.6"/>
<path style="fill:#B20000;" d="M451.2,317.6v20.8c0,21.6-16,43.2-37.6,43.2h-2.4l-4.8,24h9.6c34.4,0,58.4-28,58.4-62.4v-25.6"/>
<path style="fill:#F7DF77;" d="M401.6,213.6c0,4-3.2,8-7.2,8H340c-4,0-7.2-4-7.2-8l0,0c0-4,3.2-8,7.2-8h54.4
	C398.4,205.6,401.6,209.6,401.6,213.6L401.6,213.6z"/>
<path style="fill:#B26526;" d="M40.8,316.8c-3.2,11.2,4.8,26.4,20,34.4s32,7.2,40-1.6L40.8,316.8z"/>
<path style="fill:#874B15;" d="M60.8,351.2c15.2,8,32,7.2,40-1.6l-59.2-32.8"/>
<path style="fill:#B26526;" d="M44.8,310.4l59.2,32.8c3.2-11.2-4.8-26.4-20-34.4C68.8,300,52.8,301.6,44.8,310.4z"/>
<path style="fill:#874B15;" d="M44.8,310.4l59.2,32.8c3.2-11.2-4.8-26.4-20-34.4"/>
<path style="fill:#B26526;" d="M132.8,316.8c-3.2,11.2,4.8,26.4,20,34.4s32,7.2,40-1.6L132.8,316.8z"/>
<path style="fill:#874B15;" d="M152.8,351.2c15.2,8,32,7.2,40-1.6l-59.2-32.8"/>
<path style="fill:#B26526;" d="M136.8,310.4l59.2,32.8c3.2-11.2-4.8-26.4-20-34.4C160.8,300,144.8,301.6,136.8,310.4z"/>
<path style="fill:#874B15;" d="M136.8,310.4l59.2,32.8c3.2-11.2-4.8-26.4-20-34.4"/>
<path style="fill:#B26526;" d="M224.8,316.8c-3.2,11.2,4.8,26.4,20,34.4s32,7.2,40-1.6L224.8,316.8z"/>
<path style="fill:#874B15;" d="M244.8,351.2c15.2,8,32,7.2,40-1.6l-59.2-32.8"/>
<path style="fill:#B26526;" d="M228.8,310.4l59.2,32.8c3.2-11.2-4.8-26.4-20-34.4C252.8,300,236.8,301.6,228.8,310.4z"/>
<path style="fill:#874B15;" d="M228.8,310.4l59.2,32.8c3.2-11.2-4.8-26.4-20-34.4"/>
<path style="fill:#B26526;" d="M316.8,316.8c-3.2,11.2,4.8,26.4,20,34.4s32,7.2,40-1.6L316.8,316.8z"/>
<path style="fill:#874B15;" d="M336.8,351.2c15.2,8,32,7.2,40-1.6l-59.2-32.8"/>
<path style="fill:#B26526;" d="M320.8,310.4l59.2,32.8c3.2-11.2-4.8-26.4-20-34.4C344.8,300,328.8,301.6,320.8,310.4z"/>
<path style="fill:#874B15;" d="M320.8,310.4l59.2,32.8c3.2-11.2-4.8-26.4-20-34.4"/>
<g>
	<path style="fill:#FFFCEE;" d="M155.2,152.8c0,4-4,8-8,8l0,0c-4,0-8-3.2-8-8v-76c0-4,4-8,8-8l0,0c4,0,8,3.2,8,8V152.8z"/>
	<path style="fill:#FFFCEE;" d="M211.2,101.6c0,4-3.2,8-8,8l0,0c-4,0-8-3.2-8-8v-72c0-4,3.2-8,8-8l0,0c4,0,8,3.2,8,8V101.6z"/>
	<path style="fill:#FFFCEE;" d="M267.2,149.6c0,4-3.2,8-8,8l0,0c-4,0-8-3.2-8-8v-72c0-4,3.2-8,8-8l0,0c4,0,8,3.2,8,8V149.6z"/>
</g>
<g>
</g>
<g>
</g>
<g>
</g>
<g>
</g>
<g>
</g>
<g>
</g>
<g>
</g>
<g>
</g>
<g>
</g>
<g>
</g>
<g>
</g>
<g>
</g>
<g>
</g>
<g>
</g>
<g>
</g>
</svg>
