<svg height="512" viewBox="0 0 52 58" width="512" xmlns="http://www.w3.org/2000/svg"><g id="Page-1" fill="none" fill-rule="evenodd"><g id="011---Drunk" fill-rule="nonzero"><path id="Shape" d="m4 26h3v14h-3c-2.209139 0-4-1.790861-4-4v-6c0-2.209139 1.790861-4 4-4z" fill="#f9c795"/><path id="Shape" d="m45 26h3c2.209139 0 4 1.790861 4 4v6c0 2.209139-1.790861 4-4 4h-3z" fill="#f9c795"/><path id="Shape" d="m46 14.19v30.81c0 7.1797017-5.8202983 13-13 13h-14c-7.1797017 0-13-5.8202983-13-13v-30.81z" fill="#fdd7ad"/><path id="Shape" d="m3 0v9c0 3.3137085 2.6862915 6 6 6h34c3.3137085 0 6-2.6862915 6-6s-2.6862915-6-6-6h-31.122c-2.53640761-.00050293-5.02503048-.69005885-7.2-1.995z" fill="#cb8252"/><circle id="Oval" cx="18" cy="29" fill="#ecf0f1" r="5"/><circle id="Oval" cx="34" cy="29" fill="#ecf0f1" r="5"/><circle id="Oval" cx="18" cy="27" fill="#35495e" r="2"/><circle id="Oval" cx="35" cy="30" fill="#35495e" r="2"/><path id="Shape" d="m34 49.2v2.8c-.0032948 1.1032019-.8967981 1.9967052-2 2-1.1011688-.0081672-1.9918328-.8988312-2-2v-1.35c-2.6462497.4666696-5.3537503.4666696-8 0-8.64-1.66-8.2-8.65-4.47-8.65 4.24 0 5.47 2 8.47 2s4.23-2 8.47-2c3.01 0 3.88 4.57-.47 7.2z" fill="#802d40"/><g fill="#9fc9d3"><path id="Shape" d="m40 38c-.5522847 0-1-.4477153-1-1v-1c0-.5522847.4477153-1 1-1s1 .4477153 1 1v1c0 .5522847-.4477153 1-1 1z"/><path id="Shape" d="m43 40h-1c-.5522847 0-1-.4477153-1-1s.4477153-1 1-1h1c.5522847 0 1 .4477153 1 1s-.4477153 1-1 1z"/><path id="Shape" d="m40 43c-.5522847 0-1-.4477153-1-1v-1c0-.5522847.4477153-1 1-1s1 .4477153 1 1v1c0 .5522847-.4477153 1-1 1z"/><path id="Shape" d="m38 40h-1c-.5522847 0-1-.4477153-1-1s.4477153-1 1-1h1c.5522847 0 1 .4477153 1 1s-.4477153 1-1 1z"/></g><path id="Shape" d="m46 14.19v18.81c-2.4267989-1.9632997-3.8854395-4.8805811-4-8 0-3.28 0-6.57-1.81-10h2.81c1.0546903.0050382 2.0911709-.2748116 3-.81z" fill="#a56a43"/><path id="Shape" d="m11.81 15c-1.81 3.43-1.81 6.72-1.81 10-.11456047 3.1194189-1.57320114 6.0367003-4 8v-18.81c.90882912.5351884 1.94530971.8150382 3 .81z" fill="#a56a43"/><path id="Shape" d="m30 50v.65c-2.6462497.4666696-5.3537503.4666696-8 0v-.65c0-2.209139 1.790861-4 4-4s4 1.790861 4 4z" fill="#ff5364"/><circle id="Oval" cx="17" cy="28" fill="#ecf0f1" r="1"/><circle id="Oval" cx="34" cy="31" fill="#ecf0f1" r="1"/></g></g></svg>