<?xml version="1.0" encoding="iso-8859-1"?>
<!-- Generator: Adobe Illustrator 19.0.0, SVG Export Plug-In . SVG Version: 6.00 Build 0)  -->
<svg version="1.1" id="Layer_1" xmlns="http://www.w3.org/2000/svg" xmlns:xlink="http://www.w3.org/1999/xlink" x="0px" y="0px"
	 viewBox="0 0 492.8 492.8" style="enable-background:new 0 0 492.8 492.8;" xml:space="preserve">
<path style="fill:#FFFCEE;" d="M167.584,84.8v364.8c0,34.4,32,43.2,66.4,43.2h90.4c34.4,0,59.2-15.2,59.2-50.4V84.8H167.584z"/>
<path style="fill:#E8E3CF;" d="M191.584,84.8v352c0,28,23.2,32,51.2,32h73.6c28,0,52-9.6,52-37.6V84.8H191.584z"/>
<path style="fill:#D8D2BA;" d="M315.584,468.8c28,0,52-9.6,52-37.6V84.8h-176"/>
<path style="fill:#FF7E1D;" d="M191.584,164.8v272c0,28,23.2,32,51.2,32h73.6c28,0,52-9.6,52-37.6V164.8H191.584z"/>
<path style="fill:#FFFFFF;" d="M264.384,145.6l-39.2-1.6c-5.6,0-9.6,4-9.6,9.6l-1.6,39.2c0,5.6,9.6,8,14.4,8h31.2
	c5.6,0,12-1.6,12-6.4l1.6-39.2C273.984,150.4,269.984,145.6,264.384,145.6z"/>
<path style="fill:#EDE9D9;" d="M262.784,204c5.6,0,9.6-4,9.6-9.6l1.6-39.2c0-5.6-4-9.6-9.6-9.6l-39.2-1.6"/>
<path style="fill:#DD600B;" d="M239.584,468.8h76c28,0,52-9.6,52-37.6V164.8h-120"/>
<g>
	<path style="fill:#BC520A;" d="M214.784,164.8l-0.8,28c0,5.6,4,9.6,9.6,9.6l39.2,0.8c5.6,0,9.6-5.6,9.6-10.4l0.8-28L214.784,164.8
		L214.784,164.8z"/>
	<path style="fill:#BC520A;" d="M305.184,264l-36,14.4c-4.8,1.6-7.2,7.2-5.6,12.8l14.4,36c1.6,4.8,7.2,7.2,12.8,5.6l36-14.4
		c4.8-1.6,7.2-7.2,5.6-12.8l-14.4-36C315.584,264,309.984,261.6,305.184,264z"/>
	<path style="fill:#BC520A;" d="M330.784,218.4l-26.4-29.6c-3.2-4-9.6-4-13.6-0.8l-29.6,25.6c-4,3.2-4,9.6-0.8,13.6l25.6,29.6
		c3.2,4,9.6,4,13.6,0.8l29.6-25.6C333.184,228.8,333.984,222.4,330.784,218.4z"/>
</g>
<g>
	<path style="fill:#FFC661;" d="M223.584,429.6c0,4-4,7.2-8,7.2l0,0c-4,0-8-3.2-8-7.2V262.4c0-4,4-7.2,8-7.2l0,0c4,0,8,3.2,8,7.2
		V429.6z"/>
	<path style="fill:#FFC661;" d="M223.584,237.6c0,4-4,7.2-8,7.2l0,0c-4,0-8-3.2-8-7.2v-20.8c0-4,4-7.2,8-7.2l0,0c4,0,8,2.4,8,7.2
		V237.6z"/>
</g>
<polygon style="fill:#4C002D;" points="400.384,35.2 393.184,27.2 335.584,84.8 335.584,84.8 335.584,300.8 351.584,300.8 
	351.584,84.8 "/>
<rect x="335.584" y="164.8" style="fill:#FF7E1D;" width="16" height="136"/>
<path style="fill:#26001A;" d="M398.784,29.6c2.4,2.4,3.2,5.6,1.6,7.2c-1.6,1.6-4.8,0-6.4-2.4c-2.4-2.4-1.6-5.6,0-6.4
	S396.384,26.4,398.784,29.6z"/>
<path style="fill:#F15249;" d="M301.984,52.8c-4.8-32-50.4-52.8-104.8-52.8c-55.2,0-100.8,20.8-105.6,52.8H301.984z"/>
<path style="fill:#FFFFFF;" d="M268.384,52.8c-3.2-32-34.4-52.8-72-52.8s-68.8,20.8-72,52.8H268.384z"/>
<path style="fill:#3CC676;" d="M229.184,52.8c-1.6-32-15.2-52.8-32.8-52.8c-16.8,0-31.2,20.8-32.8,52.8H229.184z"/>
<path style="fill:#C93131;" d="M279.584,20.8h-165.6c-14.4,8.8-20.8,24-22.4,32h210.4C300.384,44.8,296.384,32,279.584,20.8z"/>
<path style="fill:#EDE9D9;" d="M140.384,20.8c-7.2,8-14.4,24-15.2,32h144c-0.8-8-8.8-24-15.2-32H140.384z"/>
<path style="fill:#00A057;" d="M171.584,20.8c-3.2,8-6.4,24-7.2,32h64.8c-0.8-8-4-24-7.2-32H171.584z"/>
<rect x="191.584" y="52.8" style="fill:#C4C4C4;" width="8" height="152"/>
<rect x="191.584" y="84.8" style="fill:#BFB795;" width="8" height="120"/>
<rect x="191.584" y="164.8" style="fill:#BC520A;" width="8" height="40"/>
<path style="fill:#FFFCEE;" d="M361.184,96.8c0,1.6-1.6,4-3.2,4h-157.6c-1.6,0-3.2-2.4-3.2-4l0,0c0-1.6,1.6-4,3.2-4h156.8
	C359.584,92.8,361.184,95.2,361.184,96.8L361.184,96.8z"/>
<circle style="fill:#BC520A;" cx="315.584" cy="436" r="9.6"/>
<circle style="fill:#FF7E1D;" cx="285.984" cy="366.4" r="16.8"/>
<g>
	<circle style="fill:#BC520A;" cx="291.584" cy="421.6" r="6.4"/>
	<circle style="fill:#BC520A;" cx="333.184" cy="386.4" r="9.6"/>
</g>
<g>
	<circle style="fill:#FF7E1D;" cx="307.584" cy="402.4" r="4"/>
	<circle style="fill:#FF7E1D;" cx="338.784" cy="340" r="2.4"/>
	<circle style="fill:#FF7E1D;" cx="321.184" cy="360" r="6.4"/>
</g>
<g>
</g>
<g>
</g>
<g>
</g>
<g>
</g>
<g>
</g>
<g>
</g>
<g>
</g>
<g>
</g>
<g>
</g>
<g>
</g>
<g>
</g>
<g>
</g>
<g>
</g>
<g>
</g>
<g>
</g>
</svg>
