<?xml version="1.0" encoding="iso-8859-1"?>
<!-- Generator: Adobe Illustrator 19.0.0, SVG Export Plug-In . SVG Version: 6.00 Build 0)  -->
<svg version="1.1" id="Layer_1" xmlns="http://www.w3.org/2000/svg" xmlns:xlink="http://www.w3.org/1999/xlink" x="0px" y="0px"
	 viewBox="0 0 496 496" style="enable-background:new 0 0 496 496;" xml:space="preserve">
<rect x="184" y="40" style="fill:#39A8A2;" width="128" height="40"/>
<path style="fill:#5FD6D6;" d="M344,464.8c0,16.8-12.8,31.2-29.6,31.2H181.6c-16.8,0-29.6-14.4-29.6-31.2V144c0-16.8,15.2-32,32-72
	h128c16.8,40,32,55.2,32,72V464.8z"/>
<path style="fill:#49C4C1;" d="M184,72h128c16.8,40,32,55.2,32,72v192"/>
<path style="fill:#F2B233;" d="M328,37.6c0,5.6-2.4,10.4-8,10.4H176c-5.6,0-8-4.8-8-10.4V10.4c0-5.6,2.4-10.4,8-10.4h144
	c5.6,0,8,4.8,8,10.4V37.6z"/>
<path style="fill:#E08A22;" d="M168,10.4c0-5.6,2.4-10.4,8-10.4h144c5.6,0,8,4.8,8,10.4v27.2c0,5.6-2.4,10.4-8,10.4"/>
<path style="fill:#FFFFFF;" d="M327.2,180.8c-11.2,7.2-24.8,12-39.2,12s-28-4.8-40-12c-11.2,7.2-24.8,12-40,12
	c-14.4,0-28-4.8-39.2-12c-5.6,3.2-8.8,6.4-16.8,8V464c0,16.8,12.8,31.2,29.6,31.2h132c16.8,0,29.6-14.4,29.6-31.2V189.6
	C336,187.2,332.8,184.8,327.2,180.8z"/>
<path style="fill:#EDF7F6;" d="M327.2,197.6c-11.2,7.2-24.8,12-39.2,12s-28-4.8-40-12c-11.2,7.2-24.8,12-40,12
	c-14.4,0-28-4.8-39.2-12c-5.6,3.2-8.8,6.4-16.8,8V464c0,16.8,12.8,31.2,29.6,31.2h132c16.8,0,29.6-14.4,29.6-31.2V206.4
	C336,204,332.8,201.6,327.2,197.6z"/>
<path style="fill:#D8EFEE;" d="M314.4,496c16.8,0,29.6-14.4,29.6-31.2V189.6c-8-2.4-11.2-4.8-16.8-8c-11.2,7.2-24.8,12-39.2,12
	s-28.8-4.8-40-12"/>
<path style="fill:#F2B233;" d="M266.4,259.2L266.4,259.2L266.4,259.2z"/>
<polygon style="fill:#F7D772;" points="248,276.8 232,259.2 232,325.6 248.8,343.2 248.8,343.2 247.2,343.2 264,325.6 264,259.2 "/>
<g>
	<polyline style="fill:#F2B233;" points="248,343.2 248,343.2 247.2,343.2 264,325.6 264,259.2 247.2,276.8 	"/>
	<path style="fill:#F2B233;" d="M229.6,259.2L229.6,259.2L229.6,259.2z"/>
</g>
<polygon style="fill:#F7D772;" points="229.6,256 184,256 184,368 232,368 232,325.6 197.6,290.4 "/>
<path style="fill:#F2B233;" d="M229.6,259.2L229.6,259.2L229.6,259.2z"/>
<polygon style="fill:#EF9F35;" points="266.4,256 298.4,290.4 264,325.6 264,368 312,368 312,256 "/>
<g>
	<polyline style="fill:#E08A22;" points="264,368 312,368 312,256 	"/>
</g>
<path style="fill:#F2B233;" d="M266.4,259.2L266.4,259.2L266.4,259.2z"/>
<path style="fill:#FFFFFF;" d="M176,456.8c0,4-0.8,7.2-4,7.2l0,0c-3.2,0-4-3.2-4-7.2V201.6c0-4,0.8-7.2,4-7.2l0,0c3.2,0,4,3.2,4,7.2
	V456.8z"/>
<path style="fill:#A2EDE9;" d="M176,170.4c0,0.8-0.8,0.8-4,0.8l0,0c-3.2,0-4-0.8-4-0.8v-36.8c0-0.8,0.8-0.8,4-0.8l0,0
	c3.2,0,4,0.8,4,0.8V170.4z"/>
<g>
	<circle style="fill:#39A8A2;" cx="196" cy="30.4" r="6.4"/>
	<circle style="fill:#39A8A2;" cx="230.4" cy="30.4" r="6.4"/>
	<circle style="fill:#39A8A2;" cx="265.6" cy="30.4" r="6.4"/>
	<circle style="fill:#39A8A2;" cx="300" cy="30.4" r="6.4"/>
</g>
<path style="fill:#F2B233;" d="M320,4c0,2.4-1.6,4-4,4H180c-2.4,0-4-1.6-4-4l0,0c0-2.4,1.6-4,4-4h136C318.4,0,320,1.6,320,4L320,4z"
	/>
<g>
</g>
<g>
</g>
<g>
</g>
<g>
</g>
<g>
</g>
<g>
</g>
<g>
</g>
<g>
</g>
<g>
</g>
<g>
</g>
<g>
</g>
<g>
</g>
<g>
</g>
<g>
</g>
<g>
</g>
</svg>
