<svg id="Filledoutline" height="512" viewBox="0 0 512 512" width="512" xmlns="http://www.w3.org/2000/svg"><path d="m400 368v120h-288v-120a79.92 79.92 0 0 1 78.06-79.97h131.88a79.92 79.92 0 0 1 78.06 79.97z" fill="#4e4e4f"/><path d="m336 344-40 16 16 32-56 40-56-40 16-32-40-16v-54.39a81.027 81.027 0 0 1 8.72-1.28q2.655-.24 5.34-.3h131.88q2.685.06 5.34.3a81.027 81.027 0 0 1 8.72 1.28z" fill="#686869"/><path d="m327.28 288.33-55.28 111.42-16 32.25-16-32.25-55.28-111.42q2.655-.24 5.34-.3h131.88q2.685.06 5.34.3z" fill="#e3e4e2"/><path d="m240 352-8-24 24-24 24 24-8 24z" fill="#4e4e4f"/><path d="m336 152h32a24 24 0 0 1 24 24 24 24 0 0 1 -24 24h-32z" fill="#6e5339"/><path d="m176 152h-32a24 24 0 0 0 -24 24 24 24 0 0 0 24 24h32z" fill="#6e5339"/><path d="m271.122 304h-30.244a88.878 88.878 0 0 1 -67.478-31.037 88.876 88.876 0 0 1 -21.4-57.841v-87.122a104 104 0 0 1 104-104 104 104 0 0 1 104 104v87.122a88.876 88.876 0 0 1 -21.4 57.841 88.878 88.878 0 0 1 -67.478 31.037z" fill="#a57c55"/><path d="m256 232h-8a8 8 0 0 1 0-16h8v-8a8 8 0 0 1 16 0v8a16.019 16.019 0 0 1 -16 16z" fill="#6e5339"/><path d="m264 280h-16a8 8 0 0 1 0-16h16a8 8 0 0 1 0 16z" fill="#6e5339"/><path d="m219.284 200h-26.379a14.662 14.662 0 0 1 -14.514-16.735l3.811-26.677a14.662 14.662 0 0 1 14.514-12.588h43.284l-6.2 43.412a14.662 14.662 0 0 1 -14.516 12.588z" fill="#343433"/><path d="m292.716 200h26.384a14.662 14.662 0 0 0 14.514-16.735l-3.814-26.677a14.662 14.662 0 0 0 -14.516-12.588h-43.284l6.2 43.412a14.662 14.662 0 0 0 14.516 12.588z" fill="#343433"/><path d="m272 352v47.75l-16 32.25-16-32.25v-47.75z" fill="#4e4e4f"/><path d="m248 232h8a16.019 16.019 0 0 0 16-16v-8a8 8 0 0 0 -16 0v8h-8a8 8 0 0 0 0 16z"/><path d="m248 280h16a8 8 0 0 0 0-16h-16a8 8 0 0 0 0 16z"/><path d="m382.923 306.484a88.541 88.541 0 0 0 -15.972-12.923l20.049-36.089a46.132 46.132 0 0 0 -3.417-50.027l-1.9-2.527a32 32 0 0 0 -13.683-60.918v-16a112 112 0 0 0 -224 0v16a32 32 0 0 0 0 64v7.122a96.938 96.938 0 0 0 23.323 63.047q1.906 2.225 3.935 4.313a88 88 0 0 0 -67.258 85.518v120h16v-120a72.032 72.032 0 0 1 48-67.888v43.888a8 8 0 0 0 5.029 7.428l31.928 12.772-12.112 24.223a8 8 0 0 0 2.5 10.088l52.655 37.606v51.883h16v-51.883l52.65-37.607a8 8 0 0 0 2.5-10.088l-12.107-24.222 31.928-12.771a8 8 0 0 0 5.029-7.429v-43.888a72.032 72.032 0 0 1 48 67.888v120h16v-120a87.5 87.5 0 0 0 -25.077-61.516zm-9.909-56.784-20.324 36.585a87.229 87.229 0 0 0 -11.948-3.8q2.023-2.093 3.935-4.313a96.938 96.938 0 0 0 23.323-63.05v-1.789l2.784 3.712a30.115 30.115 0 0 1 2.23 32.655zm-93.014 115.926v-12.326l7.589-22.768a8 8 0 0 0 -1.932-8.187l-10.438-10.445a96.772 96.772 0 0 0 35.607-8.411zm-78.826-62.132a96.772 96.772 0 0 0 35.607 8.411l-10.438 10.438a8 8 0 0 0 -1.932 8.187l7.589 22.77v12.328zm65.06 40.506h-20.468l-4.613-13.839 14.847-14.848 14.847 14.848zm-18.234 16h16v37.875l-8 16.125-8-16.125zm136-184a16.019 16.019 0 0 1 -16 16v-32a16.019 16.019 0 0 1 16 16zm-128-144a96.108 96.108 0 0 1 96 96v24h-15.079a22.783 22.783 0 0 0 -21.637-16h-43.284a8 8 0 0 0 -7.919 9.132l.981 6.868h-18.124l.981-6.868a8 8 0 0 0 -7.919-9.132h-43.284a22.783 22.783 0 0 0 -21.637 16h-15.079v-24a96.108 96.108 0 0 1 96-96zm68.127 157.7a6.586 6.586 0 0 1 -5.027 2.3h-26.384a6.7 6.7 0 0 1 -6.6-5.721l-4.892-34.279h34.06a6.7 6.7 0 0 1 6.6 5.721l3.806 26.679a6.584 6.584 0 0 1 -1.563 5.3zm-93.351-37.7-4.9 34.28a6.7 6.7 0 0 1 -6.595 5.72h-26.376a6.663 6.663 0 0 1 -6.595-7.6l3.811-26.676a6.7 6.7 0 0 1 6.595-5.72zm-102.776 24a16.019 16.019 0 0 1 16-16v32a16.019 16.019 0 0 1 -16-16zm32 39.122v-47.122h12.49l-2.019 14.134a22.661 22.661 0 0 0 22.434 25.866h26.379a22.773 22.773 0 0 0 22.434-19.457l2.935-20.543h22.7l2.934 20.542a22.773 22.773 0 0 0 22.429 19.458h26.384a22.661 22.661 0 0 0 22.434-25.867l-2.024-14.133h12.49v47.122a80.878 80.878 0 0 1 -80.878 80.878h-30.244a80.878 80.878 0 0 1 -80.878-80.878zm24 89.757 20.863 42.05-20.863-8.345zm34.12 68.77 16.493 33.243-24.4-17.428zm59.267 33.243 16.493-33.243 7.908 15.815zm29.75-59.963 20.863-42.05v33.7z"/><path d="m152 392h16v96h-16z"/><path d="m344 392h16v96h-16z"/><path d="m280 448h16v16h-16z"/></svg>