<?xml version="1.0" encoding="iso-8859-1"?>
<!-- Generator: Adobe Illustrator 19.0.0, SVG Export Plug-In . SVG Version: 6.00 Build 0)  -->
<svg version="1.1" id="Layer_1" xmlns="http://www.w3.org/2000/svg" xmlns:xlink="http://www.w3.org/1999/xlink" x="0px" y="0px"
	 viewBox="0 0 484.705 484.705" style="enable-background:new 0 0 484.705 484.705;" xml:space="preserve">
<path style="fill:#282828;" d="M339.952,96.705c0,13.6-11.2,28-24.8,28h-137.6c-13.6,0-24.8-14.4-24.8-28l0,0
	c0-13.6,11.2-28,24.8-28h137.6C328.752,68.705,339.952,83.105,339.952,96.705L339.952,96.705z"/>
<path d="M254.352,68.705h60.8c13.6,0,24.8,12.8,24.8,26.4l0,0c0,13.6-12,24-25.6,24"/>
<polygon style="fill:#D63834;" points="310.352,484.705 182.352,484.705 143.152,100.705 349.552,100.705 "/>
<polyline style="fill:#B21414;" points="142.352,100.705 349.552,100.705 310.352,484.705 "/>
<polyline style="fill:#8E0404;" points="142.352,100.705 349.552,100.705 326.352,321.505 "/>
<rect x="118.352" y="92.705" style="fill:#282828;" width="248" height="48"/>
<polyline points="118.352,92.705 366.352,92.705 366.352,140.705 "/>
<path style="fill:#FFFCEE;" d="M278.352,328.705c-16-0.8-29.6-13.6-29.6-30.4s13.6-29.6,29.6-30.4v-40.8c-32,0.8-70.4,32-70.4,71.2
	s38.4,70.4,70.4,71.2V328.705z"/>
<path style="fill:#AFAFAF;" d="M207.952,298.305c0,39.2,38.4,70.4,70.4,71.2v-40.8c-16-0.8-29.6-13.6-29.6-30.4"/>
<polygon style="fill:#B21414;" points="314.352,444.705 178.352,444.705 179.952,460.705 312.752,460.705 "/>
<path style="fill:#FFFCEE;" d="M271.952,6.305c-4-4-6.4-8.8-10.4-4.8l-25.6,24.8c-1.6,2.4-6.4,7.2-5.6,10.4c0,0,0,1.6,0,2.4v37.6
	c0,5.6,6.4,0.8,12,0.8s12,4.8,12-0.8v-36l24-23.2C282.352,12.705,275.952,10.305,271.952,6.305z"/>
<path style="fill:#E5E5D6;" d="M230.352,36.705v39.2c0,5.6,6.4,0.8,12,0.8s12,4.8,12-0.8v-35.2l25.6-24.8"/>
<path style="fill:#CECDBE;" d="M230.352,36.705v39.2c0,5.6,6.4,0.8,12,0.8s12,4.8,12-0.8v-39.2"/>
<g>
</g>
<g>
</g>
<g>
</g>
<g>
</g>
<g>
</g>
<g>
</g>
<g>
</g>
<g>
</g>
<g>
</g>
<g>
</g>
<g>
</g>
<g>
</g>
<g>
</g>
<g>
</g>
<g>
</g>
</svg>
