<?xml version="1.0" encoding="iso-8859-1"?>
<!-- Generator: Adobe Illustrator 19.0.0, SVG Export Plug-In . SVG Version: 6.00 Build 0)  -->
<svg version="1.1" id="Layer_1" xmlns="http://www.w3.org/2000/svg" xmlns:xlink="http://www.w3.org/1999/xlink" x="0px" y="0px"
	 viewBox="0 0 479.2 479.2" style="enable-background:new 0 0 479.2 479.2;" xml:space="preserve">
<circle style="fill:#77003C;" cx="239.4" cy="242.4" r="233.6"/>
<path style="fill:#560033;" d="M405,76.8C496.2,168,496.2,316,405,408c-91.2,91.2-239.2,91.2-331.2,0"/>
<g>
	<path style="fill:#FFFCEE;" d="M359.4,247.2C358.6,247.2,359.4,247.2,359.4,247.2c0-7.2-8-16-15.2-16H133c-7.2,0-12.8,4-12.8,11.2
		c0,0.8-0.8,4.8,0,4.8l0,0v112c0,65.6,51.2,120,116.8,120h5.6c65.6,0,116.8-54.4,116.8-120V247.2L359.4,247.2z"/>
</g>
<path style="fill:#EDE9D9;" d="M239.4,479.2h3.2c65.6,0,116.8-54.4,116.8-120v-112l0,0c0,0,0,0.8,0,0c0-7.2-8-16-15.2-16H229.8
	c-7.2,0-110.4,7.2-110.4,13.6"/>
<ellipse style="fill:#74B208;" cx="239.4" cy="237.6" rx="119.2" ry="16.8"/>
<path style="fill:#378C00;" d="M239.4,221.6c65.6,0,119.2,7.2,119.2,16.8c0,8.8-53.6,16.8-119.2,16.8"/>
<path style="fill:#006607;" d="M135.4,246.4c20.8,4.8,59.2,8.8,104,8.8s83.2-3.2,104-8.8c-20.8-4.8-59.2-8.8-104-8.8
	C194.6,237.6,156.2,240.8,135.4,246.4z"/>
<path style="fill:#FFFCEE;" d="M349,264c-18.4,5.6-60.8,10.4-109.6,10.4c-49.6,0-92-4-109.6-10.4c-6.4,1.6-9.6,4-9.6,6.4
	c0,8.8,53.6,16.8,119.2,16.8s119.2-7.2,119.2-16.8C358.6,268,355.4,266.4,349,264z"/>
<path style="fill:#CEC7A7;" d="M239.4,274.4c-49.6,0-92-4-109.6-10.4c-6.4,1.6-9.6,4-9.6,6.4c0,8.8,53.6,16.8,119.2,16.8"/>
<path style="fill:#FFFCEE;" d="M349,320c-18.4,5.6-60.8,10.4-109.6,10.4c-49.6,0-92-4-109.6-10.4c-6.4,1.6-9.6,4-9.6,6.4
	c0,8.8,53.6,16.8,119.2,16.8s119.2-7.2,119.2-16.8C358.6,324,355.4,321.6,349,320z"/>
<path style="fill:#CEC7A7;" d="M239.4,329.6c-49.6,0-92-4-109.6-10.4c-6.4,1.6-9.6,4-9.6,6.4c0,8.8,53.6,16.8,119.2,16.8"/>
<path style="fill:#FFFCEE;" d="M349,375.2c-18.4,5.6-60.8,10.4-109.6,10.4c-49.6,0-92-4-109.6-10.4c-6.4,1.6-8,4-8,6.4
	c0,8.8,52,16.8,117.6,16.8s117.6-7.2,117.6-16C357,379.2,355.4,376.8,349,375.2z"/>
<path style="fill:#CEC7A7;" d="M239.4,384.8c-49.6,0-92-4-109.6-10.4c-6.4,1.6-8,4-8,6.4c0,8.8,52,16.8,117.6,16.8"/>
<g>
	<path style="fill:#9FE517;" d="M224.2,231.2c0,2.4-16.8,4.8-36.8,5.6c-20.8,0.8-37.6,0-37.6-2.4s16.8-4.8,36.8-5.6
		C207.4,228,224.2,228.8,224.2,231.2z"/>
	<path style="fill:#9FE517;" d="M191.4,183.2c0,4.8-3.2,8-8,8l0,0c-4.8,0-8-3.2-8-8v-136c0-4.8,3.2-8,8-8l0,0c4.8,0,8,3.2,8,8V183.2
		z"/>
	<path style="fill:#9FE517;" d="M247.4,141.6c0,4.8-3.2,8.8-8,8.8l0,0c-4.8,0-8-4-8-8.8V8.8c0-4.8,3.2-8.8,8-8.8l0,0
		c4.8,0,8,4,8,8.8V141.6z"/>
	<path style="fill:#9FE517;" d="M303.4,183.2c0,4.8-3.2,8-8,8l0,0c-4.8,0-8-3.2-8-8v-136c0-4.8,3.2-8,8-8l0,0c4.8,0,8,3.2,8,8V183.2
		z"/>
</g>
<g>
</g>
<g>
</g>
<g>
</g>
<g>
</g>
<g>
</g>
<g>
</g>
<g>
</g>
<g>
</g>
<g>
</g>
<g>
</g>
<g>
</g>
<g>
</g>
<g>
</g>
<g>
</g>
<g>
</g>
</svg>
