<?xml version="1.0" encoding="iso-8859-1"?>
<!-- Generator: Adobe Illustrator 19.0.0, SVG Export Plug-In . SVG Version: 6.00 Build 0)  -->
<svg version="1.1" id="Layer_1" xmlns="http://www.w3.org/2000/svg" xmlns:xlink="http://www.w3.org/1999/xlink" x="0px" y="0px"
	 viewBox="0 0 480.8 480.8" style="enable-background:new 0 0 480.8 480.8;" xml:space="preserve">
<circle style="fill:#00A057;" cx="148.4" cy="95.2" r="95.2"/>
<path style="fill:#008730;" d="M148.4,0c52.8,0,95.2,42.4,95.2,95.2s-42.4,95.2-95.2,95.2"/>
<circle style="fill:#E9F98C;" cx="148.4" cy="95.2" r="76"/>
<path style="fill:#BEE874;" d="M202,40.8c29.6,29.6,29.6,78.4,0,108s-78.4,29.6-108,0"/>
<g>
	<path style="fill:#80C612;" d="M136.4,50.4L136.4,50.4l12,28l12-28l0,0c0.8-1.6,0.8-3.2,0.8-5.6c0-7.2-5.6-12.8-12.8-12.8
		s-12.8,5.6-12.8,12.8C135.6,46.4,135.6,48.8,136.4,50.4z"/>
	<path style="fill:#80C612;" d="M160.4,139.2L160.4,139.2l-12-28l-12,28l0,0c-0.8,1.6-0.8,3.2-0.8,5.6c0,7.2,5.6,12.8,12.8,12.8
		s12.8-5.6,12.8-12.8C161.2,143.2,161.2,140.8,160.4,139.2z"/>
	<path style="fill:#80C612;" d="M193.2,83.2L193.2,83.2l-28,12l28,12l0,0c1.6,0.8,3.2,0.8,5.6,0.8c7.2,0,12.8-5.6,12.8-12.8
		c0-7.2-5.6-12.8-12.8-12.8C196.4,81.6,194.8,82.4,193.2,83.2z"/>
	<path style="fill:#80C612;" d="M103.6,106.4L103.6,106.4l28-12l-28-12l0,0c-1.6-0.8-3.2-0.8-5.6-0.8c-7.2,0-12.8,5.6-12.8,12.8
		c0,7.2,5.6,12.8,12.8,12.8C100.4,108,102,107.2,103.6,106.4z"/>
	<path style="fill:#80C612;" d="M171.6,55.2L171.6,55.2l-11.2,28l28-11.2l0,0c1.6-0.8,3.2-1.6,4.8-3.2c4.8-4.8,4.8-12.8,0-18.4
		c-4.8-4.8-12.8-4.8-18.4,0C173.2,52,172.4,53.6,171.6,55.2z"/>
	<path style="fill:#80C612;" d="M125.2,134.4L125.2,134.4l13.6-28l-26.4,12l0,0c-3.2,1.6-5.6,2.4-7.2,4c-4.8,4.8-4.8,12,0,17.6
		c4.8,4.8,12.8,4.8,17.6,0C124.4,137.6,124.4,136,125.2,134.4z"/>
	<path style="fill:#80C612;" d="M188.4,118.4L188.4,118.4l-28-11.2l11.2,28l0,0c0.8,1.6,1.6,3.2,3.2,4.8c4.8,4.8,12.8,4.8,18.4,0
		s4.8-12.8,0-18.4C191.6,120,190,118.4,188.4,118.4z"/>
	<path style="fill:#80C612;" d="M112.4,71.2L112.4,71.2l26.4,11.2l-12.8-28l0,0c-0.8-1.6-1.6-3.2-3.2-4.8c-4.8-4.8-13.6-4.8-18.4,0
		S101.2,62.4,106,68C107.6,69.6,108.4,70.4,112.4,71.2z"/>
</g>
<polygon style="fill:#FFFCEE;" points="427.6,96.8 139.6,96.8 184.4,429.6 184.4,480.8 384.4,480.8 384.4,429.6 "/>
<polyline style="fill:#EDE9D9;" points="288.4,480.8 384.4,480.8 384.4,429.6 427.6,96.8 280.4,96.8 "/>
<path style="fill:#E8E3CF;" d="M163.6,96.8l28,205.6c0,50.4,41.6,90.4,92,90.4s91.2-40,91.2-90.4l28.8-205.6H163.6z"/>
<path style="fill:#D8C987;" d="M150.8,190.4c50.4-2.4,89.6-44.8,89.6-96V96H139.6L150.8,190.4z"/>
<path style="fill:#EADA96;" d="M188.4,118.4L188.4,118.4l-28-11.2l11.2,28l0,0c0.8,1.6,1.6,3.2,3.2,4.8c4.8,4.8,12.8,4.8,18.4,0
	s4.8-12.8,0-18.4C191.6,120,190,118.4,188.4,118.4z"/>
<path style="fill:#D8D2BA;" d="M284.4,392.8c50.4,0,90.4-39.2,90.4-89.6l28.8-206.4H280.4"/>
<path style="fill:#F2B233;" d="M338,192c-14.4,11.2-33.6,17.6-54.4,17.6s-40-6.4-54.4-17.6c-13.6,10.4-30.4,16-49.6,17.6l12.8,92
	c0,50.4,40.8,91.2,91.2,91.2s91.2-40.8,91.2-91.2l12.8-92.8C368.4,208,351.6,201.6,338,192z"/>
<path style="fill:#D3921E;" d="M283.6,392.8c50.4,0,91.2-40.8,91.2-91.2l12.8-92.8c-19.2-0.8-36-7.2-49.6-17.6
	c-14.4,11.2-33.6,17.6-54.4,17.6"/>
<path style="fill:#FFEC9C;" d="M219.6,318.4c0.8,4-1.6,7.2-4.8,7.2l0,0c-3.2,0.8-6.4-2.4-7.2-5.6l-12.8-95.2c0-4,2.4-8,5.6-8l0,0
	c3.2-0.8,6.4,2.4,7.2,5.6L219.6,318.4z"/>
<path style="fill:#FFFCEE;" d="M203.6,190.4c0,1.6-2.4,3.2-5.6,4l0,0c-3.2,0.8-6.4-0.8-6.4-2.4l-6.4-47.2c0-1.6,2.4-3.2,5.6-4l0,0
	c3.2-0.8,6.4,0.8,6.4,2.4L203.6,190.4z"/>
<path style="fill:#FFFFFF;" d="M224.4,449.6c0,7.2-4.8,13.6-12,13.6l0,0c-7.2,0-12-5.6-12-13.6V412c0-7.2,4.8-13.6,12-13.6l0,0
	c7.2,0,12,5.6,12,13.6V449.6z"/>
<path style="fill:#FFFCEE;" d="M384.4,108.8c0,3.2-4,4-7.2,4H190.8c-3.2,0-7.2-1.6-7.2-4l0,0c0-2.4,2.4-4,6.4-4h187.2
	C380.4,104.8,384.4,105.6,384.4,108.8L384.4,108.8z"/>
<g>
</g>
<g>
</g>
<g>
</g>
<g>
</g>
<g>
</g>
<g>
</g>
<g>
</g>
<g>
</g>
<g>
</g>
<g>
</g>
<g>
</g>
<g>
</g>
<g>
</g>
<g>
</g>
<g>
</g>
</svg>
