<?xml version="1.0" encoding="iso-8859-1"?>
<!-- Generator: Adobe Illustrator 19.0.0, SVG Export Plug-In . SVG Version: 6.00 Build 0)  -->
<svg version="1.1" id="Layer_1" xmlns="http://www.w3.org/2000/svg" xmlns:xlink="http://www.w3.org/1999/xlink" x="0px" y="0px"
	 viewBox="0 0 499.197 499.197" style="enable-background:new 0 0 499.197 499.197;" xml:space="preserve">
<path style="fill:#004763;" d="M257.998,67.197c-0.8-4-1.6-8-1.6-16h-12.8c0,8-0.8,12-1.6,16c-1.6,8-4.8,16-8.8,24h33.6
	C262.798,83.197,259.598,75.197,257.998,67.197z"/>
<path style="fill:#74B208;" d="M329.998,466.397c0,32-28.8,32.8-60.8,32.8h-39.2c-32,0-60.8-0.8-60.8-32.8v-270.4
	c0-32,28.8-56.8,60.8-56.8h39.2c32,0,60.8,24.8,60.8,56.8V466.397z"/>
<path style="fill:#52A305;" d="M230.798,139.197h39.2c32,0,57.6,24.8,57.6,56.8l2.4,270.4c0,32-28.8,32.8-60.8,32.8h-39.2"/>
<path style="fill:#2E9100;" d="M233.998,139.197h35.2c32,0,60.8,24.8,60.8,56.8v135.2"/>
<path style="fill:#0579AD;" d="M289.998,123.197c0,5.6-4,8-10.4,8h-59.2c-6.4,0-10.4-3.2-10.4-8v-28c0-5.6,4-11.2,10.4-11.2h59.2
	c6.4,0,10.4,5.6,10.4,11.2V123.197z"/>
<path style="fill:#005B89;" d="M209.998,94.397c0-5.6,4-11.2,10.4-11.2h59.2c6.4,0,10.4,5.6,10.4,11.2v28.8c0,5.6-4,8-10.4,8"/>
<path style="fill:#FFFCEE;" d="M286.798,335.197L286.798,335.197l-36.8-88l-36.8,88l0,0c-2.4,4.8-4,11.2-4,16.8
	c0,22.4,18.4,40.8,40.8,40.8s40.8-18.4,40.8-40.8C290.798,345.597,289.198,339.997,286.798,335.197z"/>
<path style="fill:#EDE3C3;" d="M249.998,392.797c22.4,0,40.8-18.4,40.8-40.8c0-6.4-1.6-12-4-16.8l0,0l-36.8-88"/>
<path style="fill:#0579AD;" d="M290.798,87.997l22.4-8.8c6.4-2.4,9.6-9.6,7.2-16l-20.8-55.2c-2.4-6.4-9.6-9.6-16-7.2l-22.4,8.8
	L290.798,87.997z"/>
<path style="fill:#005B89;" d="M261.198,10.397l29.6,78.4l22.4-8.8c6.4-2.4,9.6-9.6,7.2-16"/>
<circle style="fill:#74B208;" cx="289.998" cy="83.997" r="10.4"/>
<path style="fill:#2E9100;" d="M297.198,76.797c4,4,4,10.4,0,15.2c-4,4-10.4,4-15.2,0"/>
<g>
	
		<ellipse transform="matrix(0.6114 -0.7914 0.7914 0.6114 -57.8144 225.2296)" style="fill:#91CE1B;" cx="200.401" cy="171.476" rx="24.001" ry="8.801"/>
	<path style="fill:#91CE1B;" d="M193.998,471.197c0,3.2-0.8,5.6-4,5.6l0,0c-3.2,0-4-2.4-4-5.6v-257.6c0-3.2,0.8-5.6,4-5.6l0,0
		c3.2,0,4,2.4,4,5.6V471.197z"/>
</g>
<g>
	<path style="fill:#229BC6;" d="M223.598,118.397c0,0.8-0.8,1.6-1.6,1.6l0,0c-0.8,0-1.6-0.8-1.6-1.6v-19.2c0-0.8,0.8-1.6,1.6-1.6
		l0,0c0.8,0,1.6,0.8,1.6,1.6V118.397z"/>
	<path style="fill:#229BC6;" d="M234.798,118.397c0,0.8-0.8,1.6-1.6,1.6l0,0c-0.8,0-1.6-0.8-1.6-1.6v-19.2c0-0.8,0.8-1.6,1.6-1.6
		l0,0c0.8,0,1.6,0.8,1.6,1.6V118.397z"/>
	<path style="fill:#229BC6;" d="M245.998,118.397c0,0.8-0.8,1.6-1.6,1.6l0,0c-0.8,0-1.6-0.8-1.6-1.6v-19.2c0-0.8,0.8-1.6,1.6-1.6
		l0,0c0.8,0,1.6,0.8,1.6,1.6V118.397z"/>
	<path style="fill:#229BC6;" d="M257.198,118.397c0,0.8-0.8,1.6-1.6,1.6l0,0c-0.8,0-1.6-0.8-1.6-1.6v-19.2c0-0.8,0.8-1.6,1.6-1.6
		l0,0c0.8,0,1.6,0.8,1.6,1.6V118.397z"/>
	<path style="fill:#229BC6;" d="M268.398,118.397c0,0.8-0.8,1.6-1.6,1.6l0,0c-0.8,0-1.6-0.8-1.6-1.6v-19.2c0-0.8,0.8-1.6,1.6-1.6
		l0,0c0.8,0,1.6,0.8,1.6,1.6V118.397z"/>
	<path style="fill:#229BC6;" d="M279.598,118.397c0,0.8-0.8,1.6-1.6,1.6l0,0c-0.8,0-1.6-0.8-1.6-1.6v-19.2c0-0.8,0.8-1.6,1.6-1.6
		l0,0c0.8,0,1.6,0.8,1.6,1.6V118.397z"/>
</g>
<g>
</g>
<g>
</g>
<g>
</g>
<g>
</g>
<g>
</g>
<g>
</g>
<g>
</g>
<g>
</g>
<g>
</g>
<g>
</g>
<g>
</g>
<g>
</g>
<g>
</g>
<g>
</g>
<g>
</g>
</svg>
