<?xml version="1.0" encoding="iso-8859-1"?>
<!-- Generator: Adobe Illustrator 19.0.0, SVG Export Plug-In . SVG Version: 6.00 Build 0)  -->
<svg version="1.1" id="Layer_1" xmlns="http://www.w3.org/2000/svg" xmlns:xlink="http://www.w3.org/1999/xlink" x="0px" y="0px"
	 viewBox="0 0 494.4 494.4" style="enable-background:new 0 0 494.4 494.4;" xml:space="preserve">
<polygon style="fill:#FFFCEE;" points="409.6,487.2 86.4,487.2 1.6,7.2 494.4,7.2 "/>
<polyline style="fill:#EDE9D9;" points="0,7.2 494.4,7.2 408.8,481.6 "/>
<path style="fill:#9E561B;" d="M373.6,131.2c-24,0-46.4-4.8-63.2-13.6c-16.8,8-38.4,13.6-63.2,13.6s-46.4-4.8-63.2-13.6
	c-16.8,8-38.4,13.6-63.2,13.6c-22.4,0-43.2-5.6-59.2-12.8l63.2,328.8l246.4,1.6l61.6-330.4C416.8,125.6,396,131.2,373.6,131.2z"/>
<g>
	<path style="fill:#FFFFFF;" d="M284,228.8c-1.6-10.4-11.2-16.8-20.8-15.2l-73.6,12l41.6-51.2c6.4-8,5.6-19.2-2.4-25.6l-58.4-48
		c-8-6.4-19.2-5.6-25.6,2.4l-48,58.4c-6.4,8-5.6,19.2,2.4,25.6l58.4,48c4.8,4,11.2,4.8,16.8,3.2c-0.8,2.4-0.8,4.8-0.8,8l12,74.4
		c1.6,10.4,11.2,16.8,21.6,15.2l74.4-12c10.4-1.6,16.8-11.2,15.2-20.8L284,228.8z"/>
	<path style="fill:#FFFFFF;" d="M383.2,110.4L308,108c-10.4,0-18.4,8-19.2,17.6l-2.4,75.2c0,10.4,8,18.4,17.6,19.2l75.2,2.4
		c10.4,0,18.4-8,19.2-17.6l2.4-75.2C401.6,119.2,393.6,111.2,383.2,110.4z"/>
</g>
<path style="fill:#894410;" d="M371.2,448.8L432.8,120c-16,7.2-36.8,11.2-59.2,11.2c-24,0-46.4-4.8-63.2-13.6
	c-16.8,8-38.4,13.6-63.2,13.6s-46.4-4.8-63.2-13.6c-16.8,8-38.4,13.6-63.2,13.6c-22.4,0-43.2-4-59.2-11.2"/>
<path style="fill:#C9834F;" d="M173.6,239.2c-0.8,2.4-0.8,4.8-0.8,8l12,74.4c1.6,10.4,11.2,16.8,21.6,15.2l74.4-12
	c10.4-1.6,16.8-11.2,15.2-20.8l-12-74.4c-1.6-10.4-11.2-16.8-20.8-15.2l-73.6,12l41.6-51.2c6.4-8,5.6-19.2-2.4-25.6l-32-26.4
	c-4-1.6-7.2-3.2-10.4-4.8c-16.8,8-38.4,13.6-63.2,13.6h-0.8L96,161.6c-6.4,8-5.6,19.2,2.4,25.6l58.4,48
	C161.6,239.2,168,240.8,173.6,239.2z"/>
<g>
	<path style="fill:#BA7343;" d="M173.6,239.2c-0.8,2.4-0.8,4.8-0.8,8l12,74.4c1.6,10.4,11.2,16.8,21.6,15.2l74.4-12
		c10.4-1.6,16.8-11.2,15.2-20.8l-12-74.4c-1.6-10.4-11.2-16.8-20.8-15.2l-73.6,12l41.6-51.2c6.4-8,5.6-19.2-2.4-25.6l-32-26.4
		c-4-1.6-7.2-3.2-10.4-4.8"/>
</g>
<path style="fill:#A36236;" d="M398.4,204.8l2.4-75.2v-0.8c-8.8,1.6-17.6,2.4-27.2,2.4c-24,0-46.4-4.8-63.2-13.6
	c-6.4,3.2-13.6,5.6-21.6,8l0,0l-2.4,75.2c0,10.4,8,18.4,17.6,19.2l75.2,2.4C389.6,223.2,398.4,215.2,398.4,204.8z"/>
<path style="fill:#93552B;" d="M380,223.2c10.4,0,18.4-8,19.2-17.6l2.4-75.2v-0.8c-8.8,1.6-17.6,2.4-27.2,2.4
	c-24,0-46.4-4.8-63.2-13.6c-6.4,3.2-13.6,5.6-21.6,8l0,0"/>
<path style="fill:#FFFCEE;" d="M470.4,31.2c0,5.6-4,8-9.6,8H35.2c-5.6,0-9.6-2.4-9.6-8l0,0c0-5.6,4-8,9.6-8h425.6
	C466.4,23.2,470.4,25.6,470.4,31.2L470.4,31.2z"/>
<g>
	<path style="fill:#C9834F;" d="M232,375.2c0,4.8-3.2,8-8,8l0,0c-4.8,0-8-3.2-8-8l0,0c0-4.8,3.2-8,8-8l0,0
		C228.8,367.2,232,370.4,232,375.2L232,375.2z"/>
	<path style="fill:#C9834F;" d="M263.2,356c0,4.8-4,8-8,8l0,0c-4.8,0-8-4-8-8l0,0c0-4.8,4-8,8-8l0,0
		C259.2,347.2,263.2,351.2,263.2,356L263.2,356z"/>
	<path style="fill:#C9834F;" d="M358.4,288c0,3.2-2.4,5.6-5.6,5.6l0,0c-3.2,0-5.6-2.4-5.6-5.6l0,0c0-3.2,2.4-5.6,5.6-5.6l0,0
		C356,282.4,358.4,284.8,358.4,288L358.4,288z"/>
	<path style="fill:#C9834F;" d="M184,367.2c0,8.8-7.2,16-16,16l0,0c-8.8,0-16-7.2-16-16l0,0c0-8.8,7.2-16,16-16l0,0
		C176.8,351.2,184,358.4,184,367.2L184,367.2z"/>
</g>
<path style="fill:#9E561B;" d="M358.4,361.6c0,8.8-7.2,16-16,16l0,0c-8.8,0-16-7.2-16-16l0,0c0-8.8,7.2-16,16-16l0,0
	C351.2,345.6,358.4,352.8,358.4,361.6L358.4,361.6z"/>
<g>
	<path style="fill:#F4F0DF;" d="M148.8,427.2c0.8,3.2-1.6,6.4-4.8,7.2l0,0c-3.2,0.8-6.4-1.6-7.2-4.8L98.4,224
		c-0.8-3.2,1.6-6.4,4.8-7.2l0,0c3.2-0.8,6.4,1.6,7.2,4.8L148.8,427.2z"/>
	<path style="fill:#F4F0DF;" d="M105.6,195.2c0,1.6-2.4,3.2-5.6,4l0,0c-3.2,0.8-6.4,0-6.4-2.4l-20-109.6c0-1.6,2.4-3.2,5.6-4l0,0
		c3.2-0.8,6.4,0,6.4,2.4L105.6,195.2z"/>
</g>
<ellipse style="fill:#894410;" cx="248" cy="448.8" rx="123.2" ry="7.2"/>
<g>
</g>
<g>
</g>
<g>
</g>
<g>
</g>
<g>
</g>
<g>
</g>
<g>
</g>
<g>
</g>
<g>
</g>
<g>
</g>
<g>
</g>
<g>
</g>
<g>
</g>
<g>
</g>
<g>
</g>
</svg>
